<?xml version="1.0" encoding="UTF-8" standalone="no"?>
<!-- Created with Pizarra (https://github.com/categulario/pizarra) -->

<svg
   xmlns:dc="http://purl.org/dc/elements/1.1/"
   xmlns:cc="http://creativecommons.org/ns#"
   xmlns:rdf="http://www.w3.org/1999/02/22-rdf-syntax-ns#"
   xmlns:svg="http://www.w3.org/2000/svg"
   xmlns="http://www.w3.org/2000/svg"
   xmlns:sodipodi="http://sodipodi.sourceforge.net/DTD/sodipodi-0.dtd"
   xmlns:inkscape="http://www.inkscape.org/namespaces/inkscape"
   width="400px"
   height="400px"
   viewBox="0 0 400 400"
   version="1.1"
   id="svg8"
   sodipodi:docname="logo.svg"
   inkscape:version="0.92.4 5da689c313, 2019-01-14"
   inkscape:export-filename="/home/abraham/src/pizarra/logo.png"
   inkscape:export-xdpi="96"
   inkscape:export-ydpi="96">
  <metadata
     id="metadata106">
    <rdf:RDF>
      <cc:Work
         rdf:about="">
        <dc:format>image/svg+xml</dc:format>
        <dc:type
           rdf:resource="http://purl.org/dc/dcmitype/StillImage" />
        <dc:title></dc:title>
      </cc:Work>
    </rdf:RDF>
  </metadata>
  <defs
     id="defs104" />
  <sodipodi:namedview
     pagecolor="#ffffff"
     bordercolor="#666666"
     borderopacity="1"
     objecttolerance="10"
     gridtolerance="10"
     guidetolerance="10"
     inkscape:pageopacity="0"
     inkscape:pageshadow="2"
     inkscape:window-width="1920"
     inkscape:window-height="1016"
     id="namedview102"
     showgrid="false"
     inkscape:zoom="0.59"
     inkscape:cx="-192.43954"
     inkscape:cy="200"
     inkscape:window-x="0"
     inkscape:window-y="30"
     inkscape:window-maximized="1"
     inkscape:current-layer="svg8" />
  <rect
     style="opacity:1;fill:#30363f;fill-opacity:0.94117647;stroke:none;stroke-width:8.00204372;stroke-miterlimit:4;stroke-dasharray:none;stroke-opacity:1"
     id="rect1007"
     width="400"
     height="400"
     x="0"
     y="0" />
  <path
     inkscape:connector-curvature="0"
     id="path36"
     d=""
     style="opacity:1;fill:none;fill-opacity:1;stroke:#000000;stroke-width:1;stroke-miterlimit:4;stroke-dasharray:none;stroke-opacity:1" />
  <path
     inkscape:connector-curvature="0"
     id="path38"
     d="m 111.3479,287.7205 4.46665,-3.64135 3.60618,-3.6584 5.20888,-3.91974 6.41095,-6.01022 2.80474,-2.87447 2.40413,-2.61317 3.20542,-3.6584 2.80477,-3.65845 2.80475,-3.39705 2.80477,-4.18106 2.80478,-3.6584 2.4041,-3.39711 3.20564,-4.70367 2.00326,-3.39708 1.60281,-2.61314 1.60281,-2.87447 1.60261,-2.87446 0.80151,-1.82922 0.8013,-1.82918 0.80129,-1.82924 0.80131,-2.3518 1.60281,-3.13578 2.4041,-3.13579 1.20197,-2.35185 1.20216,-2.35182 1.20197,-2.61315 0.80149,-1.82921 0.80132,-2.09053 0.80129,-1.5679 0.79398,-1.03566 0.77351,-1.00885 0.77451,-1.01013 1.19151,-2.07212 0.8013,-1.56789 1.20196,-2.09051 0.39082,-1.0195 0.7394,-0.96431 0.77536,-1.01148 1.19046,-1.29401 1.20217,-2.09053 1.20196,-1.56786 2.00346,-2.35186 1.6028,-1.82921 1.60261,-1.82918 1.20217,-1.56789 1.60261,-1.30658 1.98421,-1.55287 0.75301,-0.98207 0.77097,-1.00551 0.77411,-1.00988 v -0.18415 l 0.17559,-0.22897 h 0.37617 1.29941 l 2.4041,-1.04525 5.2089,-0.78394 5.60952,1.04528 6.01019,1.30655 4.80823,1.82921 5.20887,1.56789 3.20542,1.04528 2.40413,0.78391 1.60281,0.78396 2.00346,0.78393 1.19862,0.52118 h 1.12374 l 1.96562,1.0255 1.60258,0.78393 2.40413,1.04525 2.4041,1.04528 3.20542,1.30658 h 3.20565 l 4.00671,0.78393 2.40412,0.26123 2.4041,0.26124 h 3.20542 l 2.40413,0.26123 2.80475,0.52264 2.40413,0.78393 h 3.20541 l 2.4041,0.78396 3.6063,0.78394 4.00671,1.04525 4.00693,1.04525 3.20542,1.04528 2.80478,0.52261 2.4041,0.78396 2.00345,0.78393 h 1.18001 1.57354 l 0.72852,0.23754 0.59367,0.19357 h 0.58591 l 0.58531,0.19072 -0.45523,0.29695 -3.23303,1.87424 -3.20542,1.30657 h -2.4041 l -2.80477,0.52264 h -1.19066 l -2.77779,0.51761 h -1.18901 -1.09633 l -1.96645,0.25638 -2.40413,0.78397 -2.00345,0.52264 -1.60261,0.78393 -1.18649,0.51579 -2.37252,1.03157 -0.76869,0.25067 h -0.25553 l -0.50648,0.16531 h -0.59364 -0.57652 -0.98886 l -1.10535,0.24039 h -0.6518 l -1.0104,0.21955 -1.58964,0.77751 -2.00346,0.78396 -2.40413,1.04528 -1.60261,0.78393 -2.00345,0.78396 -2.80477,1.04526 -7.21233,2.61314 -2.40413,0.26124 h -2.80477 -1.60281 l -1.18292,0.25723 h -0.65743 -0.57714 -0.98533 -1.0905 -0.64549 -0.21613 l -1.01624,1.15971 v 0.9296 l -1.17396,2.0418 v 1.56789 l -0.80129,1.56789 v 3.13579 l -0.80152,2.61314 v 1.56789 2.09051 l -0.40065,1.56789 v 2.09053 1.56789 2.09051 1.56789 2.09053 1.56787 2.09053 1.56789 2.09051 0.47088 0.73953 0.87766 0.37493 1.90612 1.5679 l -0.40064,2.35182 -0.40065,1.30657 -0.80131,2.35183 -0.8015,1.56789 -0.80131,1.82924 -1.20217,2.0905 -0.80129,1.5679 -1.20196,2.61317 -2.80475,4.18101 -2.00348,3.65839 -4.00691,4.965 -3.20542,4.18101 -3.60609,4.96503 -4.00691,4.96499 -4.40738,4.96497 -2.80498,3.6584 -3.60606,2.8745 -4.00671,3.6584 -3.60629,3.65839 -3.60607,3.13579 -3.20542,2.61312 -3.20562,2.61317 -2.40412,1.82923 -2.4039,1.82917 -3.20562,1.82922 -3.20542,2.87445 -4.40758,2.87446 -4.80803,2.35183 -4.00694,2.09056 -4.80823,1.82918 -4.80823,2.09055 -4.80803,1.30656 -3.60626,0.78395 -3.20542,0.78394 h -1.18983 -1.58651 l -1.19211,0.25916 h -0.66182 -0.57463 -0.99703"
     style="opacity:1;fill:none;fill-opacity:1;stroke:#ddfcad;stroke-width:6;stroke-miterlimit:4;stroke-dasharray:none;stroke-opacity:1" />
  <path
     inkscape:connector-curvature="0"
     id="path40"
     d="m 170.64165,181.71933 -6.4234,-4.68206 -8.81516,-6.01028 -8.01365,-5.22629 -9.21558,-6.01022 -7.21236,-4.18104 -6.01028,-4.44238 -6.81159,-4.70365 -4.40747,-3.91972 -4.40758,-3.65843 -4.80815,-4.44235 -2.80486,-3.39711 -4.407465,-4.18101 -2.404129,-2.87449 -2.804745,-3.91972 -2.404128,-2.87446 -2.804774,-2.61315 -2.404099,-2.87446 -3.606065,-5.22629 -1.202078,-1.56789 -1.20205,-2.35185 -2.003455,-2.874441 -2.003368,-4.442385 -2.003455,-6.010221 -1.602724,-6.27157 -1.602695,-5.74893 -1.202078,-4.442357 -0.801405,-3.397076 -0.400645,-2.613145 v -1.829241 -1.567892 -0.994861 -0.875464 -0.874779 l -0.319734,-0.625564"
     style="opacity:1;fill:none;fill-opacity:1;stroke:#ddfcad;stroke-width:6;stroke-miterlimit:4;stroke-dasharray:none;stroke-opacity:1" />
  <path
     inkscape:connector-curvature="0"
     id="path42"
     d="m 41.765219,81.952471 5.925284,2.656712 5.208874,1.829213 4.006823,1.829213 3.205533,1.306572 2.804745,0.783932 1.602724,0.78396 2.4041,0.783932 1.201022,0.783276 0.312625,0.203848 0.517844,0.168732 0.585822,0.191001 0.595015,0.194141 h 0.256381 l 2.215582,0.963313 0.76743,0.2501 0.597328,0.194713"
     style="opacity:1;fill:none;fill-opacity:1;stroke:#ddfcad;stroke-width:6;stroke-miterlimit:4;stroke-dasharray:none;stroke-opacity:1" />
  <path
     inkscape:connector-curvature="0"
     id="path44"
     d="m 60.601255,124.58791 5.242021,0.48838 5.609632,1.04526 6.010193,1.30657 3.205504,0.78393 4.006824,1.04528 2.003369,0.52261 3.205533,1.04528 1.602695,0.52262 2.003455,0.78396 0.7686,0.25067"
     style="opacity:1;fill:none;fill-opacity:1;stroke:#ddfcad;stroke-width:6;stroke-miterlimit:4;stroke-dasharray:none;stroke-opacity:1" />
  <path
     inkscape:connector-curvature="0"
     id="path46"
     d="m 88.97041,160.17042 4.394935,-0.95543 3.205504,-0.78393 4.006821,-0.52261 4.00686,-0.26124 2.40409,-0.26123 h 2.40402 2.4041 1.60284 1.60269 0.7115 0.58497 1.42403"
     style="opacity:1;fill:none;fill-opacity:1;stroke:#ddfcad;stroke-width:6;stroke-miterlimit:4;stroke-dasharray:none;stroke-opacity:1" />
  <path
     inkscape:connector-curvature="0"
     id="path48"
     d="m 116.69907,79.361881 0.74485,5.586422 1.6028,4.181037 1.60273,4.703677 1.60269,4.703649 1.20208,4.181034 1.20205,3.65843 0.80141,2.87446 0.80129,2.09054 0.8014,1.82918 v 0.21784 l 0.30971,1.21207 v 0.71221 0.80423 l 0.31805,0.62226 0.32473,0.84711 v 1.51399"
     style="opacity:1;fill:none;fill-opacity:1;stroke:#ddfcad;stroke-width:6;stroke-miterlimit:4;stroke-dasharray:none;stroke-opacity:1" />
  <path
     inkscape:connector-curvature="0"
     id="path50"
     d="m 148.47389,120.27597 1.09405,3.09205 0.80152,2.87449 0.80129,2.35183 0.80132,2.35185 0.39793,1.29738 1.19357,3.37321 0.40064,1.3066 0.40068,2.61314"
     style="opacity:1;fill:none;fill-opacity:1;stroke:#ddfcad;stroke-width:6;stroke-miterlimit:4;stroke-dasharray:none;stroke-opacity:1" />
  <path
     inkscape:connector-curvature="0"
     id="path52"
     d="m 246.60328,170.33436 6.53903,-4.51545 7.61297,-4.70367 7.21236,-5.22629 7.21236,-4.96497 5.60952,-5.48764 5.20887,-5.22629 4.40738,-5.22632 4.80823,-5.22628 5.20887,-7.05551 4.40759,-7.31679 4.80823,-8.3621 4.00673,-7.055504 3.20562,-6.27157 3.20542,-5.226289 2.4041,-5.748929 2.00326,-4.181037 2.40412,-4.181037 1.60281,-3.397105 2.00346,-4.442357 2.80477,-4.964969 1.60261,-3.919746 2.00346,-3.919716 1.20216,-2.613145 0.80132,-2.613145 1.20193,-2.090504 0.80152,-1.829241"
     style="opacity:1;fill:none;fill-opacity:1;stroke:#ddfcad;stroke-width:6;stroke-miterlimit:4;stroke-dasharray:none;stroke-opacity:1" />
  <path
     inkscape:connector-curvature="0"
     id="path54"
     d="m 259.81995,108.51049 v 1.4745 l 0.40065,1.56789 v 0.99729 0.87341 0.87715 0.37438 0.74713 0.87218 0.87106 1.50797 l 0.40067,1.56789 0.40065,1.82919 0.40084,1.82924 v 2.0905 l 0.40065,1.56789 v 2.09054 1.01307 0.3683 0.73762 0.87475 0.87601 0.3697 l 0.73396,1.91478 0.40068,2.61314 1.20193,2.87446 0.80152,2.35183 v 1.82921 l 0.40065,1.82921 v 0.72718 0.82658 0.8711 0.36658 0.75821 0.87555"
     style="opacity:1;fill:none;fill-opacity:1;stroke:#ddfcad;stroke-width:6;stroke-miterlimit:4;stroke-dasharray:none;stroke-opacity:1" />
  <path
     inkscape:connector-curvature="0"
     id="path56"
     d="m 293.89138,84.248994 v 2.326243 3.658397 l 0.40088,3.919717 0.80129,3.658396 0.80132,3.397103 0.80129,3.91972 0.80152,2.35185 0.80129,3.39708 0.39793,1.29789 v 2.07663 l 0.40087,1.56789 v 0.99241 0.88508 0.37298 0.7499 0.87524 0.87495"
     style="opacity:1;fill:none;fill-opacity:1;stroke:#ddfcad;stroke-width:6;stroke-miterlimit:4;stroke-dasharray:none;stroke-opacity:1" />
  <path
     inkscape:connector-curvature="0"
     id="path58"
     d="m 330.21157,80.361025 4.79884,-1.44447 4.80803,-1.306544 3.20562,-1.045252 3.60606,-0.78396 2.4041,-0.783932 2.40413,-0.52264 h 1.60281 l 0.73,-0.238109"
     style="opacity:1;fill:none;fill-opacity:1;stroke:#ddfcad;stroke-width:6;stroke-miterlimit:4;stroke-dasharray:none;stroke-opacity:1" />
  <path
     inkscape:connector-curvature="0"
     id="path60"
     d="m 292.82849,138.6009 9.60997,-0.50139 8.81497,-1.04526 8.81517,-0.78396 6.41083,-0.78393 4.40756,-0.78396 4.00674,-0.78393 2.4041,-0.78396 h 1.6028 1.60261 1.60281 l 0.72227,-0.23554 0.58573,-0.191"
     style="opacity:1;fill:none;fill-opacity:1;stroke:#ddfcad;stroke-width:6;stroke-miterlimit:4;stroke-dasharray:none;stroke-opacity:1" />
  <path
     inkscape:connector-curvature="0"
     id="path90"
     d=""
     style="opacity:1;fill:none;fill-opacity:1;stroke:#000000;stroke-width:1;stroke-miterlimit:4;stroke-dasharray:none;stroke-opacity:1" />
  <path
     inkscape:connector-curvature="0"
     id="path92"
     d=""
     style="opacity:1;fill:none;fill-opacity:1;stroke:#000000;stroke-width:1;stroke-miterlimit:4;stroke-dasharray:none;stroke-opacity:1" />
</svg>
